<svg width="96" height="96" viewBox="0 0 96 96" fill="none" xmlns="http://www.w3.org/2000/svg">
  <rect width="96" height="96" rx="16" fill="#f1faff"></rect>
  <path opacity="0.4"
        d="M48 28.5C48.3978 28.5 48.7794 28.658 49.0607 28.9393C49.342 29.2206 49.5 29.6022 49.5 30C49.5 34.012 51.52 38.15 54.686 41.314C57.85 44.478 61.986 46.5 66 46.5C66.3978 46.5 66.7794 46.658 67.0607 46.9393C67.342 47.2206 67.5 47.6022 67.5 48C67.5 48.3978 67.342 48.7794 67.0607 49.0607C66.7794 49.342 66.3978 49.5 66 49.5C61.988 49.5 57.85 51.52 54.686 54.686C51.522 57.85 49.5 61.986 49.5 66C49.5 66.3978 49.342 66.7794 49.0607 67.0607C48.7794 67.342 48.3978 67.5 48 67.5C47.6022 67.5 47.2206 67.342 46.9393 67.0607C46.658 66.7794 46.5 66.3978 46.5 66C46.5 61.988 44.48 57.85 41.314 54.686C38.15 51.52 34.014 49.5 30 49.5C29.6022 49.5 29.2206 49.342 28.9393 49.0607C28.658 48.7794 28.5 48.3978 28.5 48C28.5 47.6022 28.658 47.2206 28.9393 46.9393C29.2206 46.658 29.6022 46.5 30 46.5C34.012 46.5 38.15 44.48 41.314 41.314C44.48 38.15 46.5 34.014 46.5 30C46.5 29.6022 46.658 29.2206 46.9393 28.9393C47.2206 28.658 47.6022 28.5 48 28.5Z"
        fill="#0dabca"
  ></path>
  <path
    d="M62.4999 26.5C62.9259 26.5 63.2959 26.796 63.3899 27.212L63.8599 29.292C64.1799 30.712 65.2879 31.82 66.7079 32.14L68.7879 32.61C68.9902 32.6553 69.171 32.7681 69.3006 32.9298C69.4302 33.0916 69.5008 33.2927 69.5008 33.5C69.5008 33.7073 69.4302 33.9084 69.3006 34.0702C69.171 34.2319 68.9902 34.3447 68.7879 34.39L66.7079 34.86C65.2879 35.18 64.1799 36.288 63.8599 37.708L63.3899 39.788C63.343 39.9888 63.2295 40.1679 63.0679 40.296C62.9063 40.4242 62.7062 40.4939 62.4999 40.4939C62.2937 40.4939 62.0935 40.4242 61.9319 40.296C61.7704 40.1679 61.6569 39.9888 61.6099 39.788L61.1399 37.708C60.983 37.0126 60.6322 36.3759 60.1281 35.8718C59.624 35.3677 58.9873 35.0169 58.2919 34.86L56.2119 34.39C56.0096 34.3447 55.8288 34.2319 55.6992 34.0702C55.5696 33.9084 55.499 33.7073 55.499 33.5C55.499 33.2927 55.5696 33.0916 55.6992 32.9298C55.8288 32.7681 56.0096 32.6553 56.2119 32.61L58.2919 32.14C58.9873 31.9831 59.624 31.6323 60.1281 31.1282C60.6322 30.6241 60.983 29.9874 61.1399 29.292L61.6099 27.212C61.6557 27.0101 61.7687 26.8296 61.9303 26.7003C62.092 26.5709 62.2929 26.5003 62.4999 26.5Z"
    fill="#0dabca"
  ></path>
  <path
    d="M33.5 55.5C33.926 55.5 34.296 55.796 34.39 56.212L34.86 58.292C35.18 59.712 36.288 60.82 37.708 61.14L39.788 61.61C39.9888 61.657 40.1679 61.7704 40.296 61.932C40.4242 62.0936 40.4939 62.2938 40.4939 62.5C40.4939 62.7062 40.4242 62.9064 40.296 63.068C40.1679 63.2296 39.9888 63.343 39.788 63.39L37.708 63.86C36.288 64.18 35.18 65.288 34.86 66.708L34.39 68.788C34.3448 68.9903 34.232 69.1711 34.0702 69.3007C33.9084 69.4303 33.7073 69.5009 33.5 69.5009C33.2927 69.5009 33.0916 69.4303 32.9299 69.3007C32.7681 69.1711 32.6553 68.9903 32.61 68.788L32.14 66.708C31.9832 66.0126 31.6323 65.3759 31.1282 64.8718C30.6241 64.3677 29.9874 64.0169 29.292 63.86L27.212 63.39C27.0112 63.343 26.8322 63.2296 26.704 63.068C26.5759 62.9064 26.5061 62.7062 26.5061 62.5C26.5061 62.2938 26.5759 62.0936 26.704 61.932C26.8322 61.7704 27.0112 61.657 27.212 61.61L29.292 61.14C29.9874 60.9831 30.6241 60.6323 31.1282 60.1282C31.6323 59.6241 31.9832 58.9874 32.14 58.292L32.61 56.212C32.6555 56.0099 32.7683 55.8293 32.9301 55.6998C33.0919 55.5704 33.2929 55.5 33.5 55.5Z"
    fill="#0dabca"
  ></path>
  <defs>
    <linearGradient id="paint0_linear_323_2090" x1="33.0964" y1="28.5" x2="65.1183" y2="30.1604"
                    gradientUnits="userSpaceOnUse"
    >
      <stop stop-color="#FB815A"></stop>
      <stop offset="1" stop-color="#0dabca"></stop>
    </linearGradient>
    <linearGradient id="paint1_linear_323_2090" x1="57.1492" y1="26.5" x2="68.6457" y2="27.0965"
                    gradientUnits="userSpaceOnUse"
    >
      <stop stop-color="#FB815A"></stop>
      <stop offset="1" stop-color="#FA4E18"></stop>
    </linearGradient>
    <linearGradient id="paint2_linear_323_2090" x1="28.1547" y1="55.5" x2="39.6398" y2="56.095"
                    gradientUnits="userSpaceOnUse"
    >
      <stop stop-color="#FB815A"></stop>
      <stop offset="1" stop-color="#FA4E18"></stop>
    </linearGradient>
  </defs>
</svg>
