<svg width="96" height="96" viewBox="0 0 96 96" fill="none" xmlns="http://www.w3.org/2000/svg">
  <rect width="96" height="96" rx="16" fill="#f1faff"></rect>
  <path fill-rule="evenodd" clip-rule="evenodd"
        d="M60.5681 33.034C60.1901 33.514 59.7681 34.048 59.4341 34.394C59.063 34.7681 58.5593 34.9806 58.0323 34.9854C57.5054 34.9902 56.9979 34.7869 56.6201 34.4196C56.2423 34.0523 56.0246 33.5507 56.0145 33.0239C56.0044 32.4971 56.2026 31.9875 56.5661 31.606C56.8665 31.2675 57.1534 30.9172 57.4261 30.556L57.5201 30.436C57.9001 29.952 58.3521 29.376 58.8181 28.828C59.3161 28.24 59.8881 27.612 60.4701 27.116C60.7808 26.8456 61.1194 26.6089 61.4801 26.41C61.8401 26.216 62.3701 26 63.0001 26C63.6301 26 64.1601 26.216 64.5201 26.41C64.8981 26.61 65.2401 26.868 65.5301 27.116C66.1121 27.612 66.6841 28.24 67.1821 28.828C67.6576 29.3946 68.1217 29.9708 68.5741 30.556C69.0081 31.108 69.2801 31.446 69.4341 31.606C69.7975 31.9875 69.9957 32.4971 69.9856 33.0239C69.9755 33.5507 69.7579 34.0523 69.3801 34.4196C69.0022 34.7869 68.4947 34.9902 67.9678 34.9854C67.4409 34.9806 66.9372 34.7681 66.5661 34.394C66.1674 33.9584 65.7889 33.5045 65.4321 33.034L65.4281 33.028L65.3401 32.914L65.0001 32.484V44C65.0001 44.5304 64.7894 45.0391 64.4143 45.4142C64.0392 45.7893 63.5305 46 63.0001 46C62.4696 46 61.9609 45.7893 61.5859 45.4142C61.2108 45.0391 61.0001 44.5304 61.0001 44V32.484C60.8865 32.6272 60.7732 32.7705 60.6601 32.914L60.5721 33.028L60.5681 33.034Z"
        fill="#0dabca"
  ></path>
  <path opacity="0.4" fill-rule="evenodd" clip-rule="evenodd"
        d="M36.842 32.33C39.266 32.004 42.466 32 47 32H52C52.5304 32 53.0391 31.7893 53.4142 31.4142C53.7893 31.0391 54 30.5304 54 30C54 29.4696 53.7893 28.9609 53.4142 28.5858C53.0391 28.2107 52.5304 28 52 28H46.852C42.5 28 39.03 28 36.308 28.364C33.5 28.742 31.194 29.542 29.368 31.368C27.544 33.192 26.744 35.498 26.366 38.308C26 41.028 26 44.498 26 48.848V49.148C26 53.5 26 56.97 26.366 59.692C26.744 62.5 27.544 64.808 29.37 66.632C30.268 67.53 31.2828 68.1798 32.417 68.6532L32.424 68.658C34.156 69.378 36.18 69.694 38.506 69.848C40.824 70.002 43.616 70.002 46.938 70.002H47.15C51.502 70.002 54.97 70.002 57.692 69.636C60.5 69.258 62.808 68.456 64.632 66.634C66.136 65.13 66.95 63.292 67.4 61.102C67.838 58.966 67.952 56.38 67.986 53.282L67.998 52.198L67.9947 52.1957C67.9986 51.491 67.9996 50.7593 68 50C68 49.4696 67.7893 48.9609 67.4142 48.5858C67.0391 48.2107 66.5304 48 66 48C65.4696 48 64.9609 48.2107 64.5858 48.5858C64.2549 48.9166 64.052 49.3514 64.0087 49.8134C61.3249 48.5161 58.7295 47.9187 56.212 47.926C52.75 47.936 49.624 49.09 46.812 50.818C42.0553 53.7372 37.8863 58.5154 34.205 62.7345L34.202 62.738C33.7307 63.2778 33.2663 63.8093 32.8101 64.3278C32.588 64.167 32.385 63.9926 32.196 63.804C31.238 62.846 30.648 61.522 30.33 59.158C30.004 56.734 30 53.534 30 49C30 44.466 30.004 41.266 30.33 38.842C30.648 36.476 31.24 35.156 32.196 34.196C33.154 33.24 34.478 32.648 36.842 32.33Z"
        fill="#0dabca"
  ></path>
  <defs>
    <linearGradient id="paint0_linear_323_2077" x1="57.6608" y1="26" x2="69.1485" y2="26.4161"
                    gradientUnits="userSpaceOnUse"
    >
      <stop stop-color="#FB815A"></stop>
      <stop offset="1" stop-color="#0dabca"></stop>
    </linearGradient>
    <linearGradient id="paint1_linear_323_2077" x1="30.95" y1="28" x2="65.4351" y2="29.788"
                    gradientUnits="userSpaceOnUse"
    >
      <stop stop-color="#FB815A"></stop>
      <stop offset="1" stop-color="#0dabca"></stop>
    </linearGradient>
  </defs>
</svg>
