<svg width="96" height="96" viewBox="0 0 96 96" fill="none" xmlns="http://www.w3.org/2000/svg">
  <rect width="96" height="96" rx="16" fill="#f1faff"></rect>
  <path fill-rule="evenodd" clip-rule="evenodd"
        d="M50.0119 50.5C50.0119 49.9696 49.8012 49.4609 49.4261 49.0858C49.0511 48.7107 48.5424 48.5 48.0119 48.5C47.4815 48.5 46.9728 48.7107 46.5977 49.0858C46.2226 49.4609 46.0119 49.9696 46.0119 50.5V59.5H44.8239C44.4719 59.5 44.0399 59.5 43.6879 59.544H43.6799C43.4259 59.576 42.2739 59.72 41.7259 60.85C41.1759 61.984 41.7799 62.984 41.9099 63.202L41.9139 63.21C42.0999 63.516 42.3679 63.856 42.5879 64.138L42.6359 64.198C43.2239 64.95 43.9879 65.918 44.7499 66.7C45.1299 67.09 45.5639 67.494 46.0259 67.812C46.4359 68.092 47.1359 68.5 47.9979 68.5C48.8579 68.5 49.5579 68.094 49.9699 67.812C50.4319 67.492 50.8659 67.092 51.2459 66.7C52.0059 65.92 52.7699 64.95 53.3599 64.2L53.4079 64.14C53.6279 63.856 53.8959 63.516 54.0819 63.21L54.0859 63.202C54.2159 62.984 54.8199 61.984 54.2699 60.85C53.7219 59.72 52.5699 59.576 52.3179 59.544H52.3099C51.9579 59.5 51.5259 59.5 51.1739 59.5H50.0099L50.0119 50.5Z"
        fill="#0dabca"
  ></path>
  <path opacity="0.4"
        d="M26.5 49C26.5004 46.4875 27.3233 44.0442 28.843 42.0434C30.3628 40.0426 32.4957 38.5944 34.916 37.92C35.308 37.81 35.504 37.756 35.616 37.64C35.73 37.524 35.78 37.328 35.878 36.936C36.5976 34.0997 38.2891 31.6055 40.658 29.8878C43.027 28.1701 45.9233 27.3376 48.8428 27.5353C51.7623 27.733 54.52 28.9483 56.6358 30.9697C58.7516 32.9911 60.0914 35.6905 60.422 38.598C60.476 39.09 60.504 39.334 60.63 39.478C60.754 39.618 60.998 39.678 61.484 39.796C63.9812 40.4018 66.1695 41.9023 67.6346 44.0134C69.0997 46.1244 69.7398 48.6994 69.4337 51.2508C69.1276 53.8021 67.8965 56.1526 65.9737 57.8572C64.0508 59.5618 61.5696 60.5021 59 60.5H58.88C58.44 60.5 58.22 60.5 58.07 60.4C57.92 60.3 57.816 60.054 57.61 59.564C57.3499 58.9436 56.9669 58.3823 56.484 57.914C55.8463 57.2921 55.0534 56.8528 54.188 56.642C53.568 56.49 53.256 56.416 53.128 56.252C53 56.088 53 55.826 53 55.3V50.5C53 49.1739 52.4732 47.9021 51.5355 46.9644C50.5979 46.0268 49.3261 45.5 48 45.5C46.6739 45.5 45.4021 46.0268 44.4645 46.9644C43.5268 47.9021 43 49.1739 43 50.5V55.3C43 55.826 43 56.088 42.872 56.252C42.744 56.416 42.432 56.492 41.812 56.642C40.9466 56.8528 40.1536 57.2921 39.516 57.914C39.016 58.402 38.594 58.966 38.31 59.574C38.078 60.072 37.962 60.322 37.798 60.416C37.634 60.51 37.43 60.494 37.018 60.458C34.1485 60.2121 31.4758 58.8984 29.5282 56.7768C27.5806 54.6551 26.5 51.88 26.5 49Z"
        fill="#0dabca"
  ></path>
  <defs>
    <linearGradient id="paint0_linear_323_2114" x1="43.0305" y1="48.5" x2="53.72" y2="48.8602"
                    gradientUnits="userSpaceOnUse"
    >
      <stop stop-color="#FB815A"></stop>
      <stop offset="1" stop-color="#FA4E18"></stop>
    </linearGradient>
    <linearGradient id="paint1_linear_323_2114" x1="31.5689" y1="27.5067" x2="66.8159" y2="29.8891"
                    gradientUnits="userSpaceOnUse"
    >
      <stop stop-color="#FB815A"></stop>
      <stop offset="1" stop-color="#FA4E18"></stop>
    </linearGradient>
  </defs>
</svg>
