<svg width="96" height="96" viewBox="0 0 96 96" fill="none" xmlns="http://www.w3.org/2000/svg">
  <rect width="96" height="96" rx="16" fill="#f1faff"></rect>
  <path
    d="M42.5 32C42.5 30.5413 43.0795 29.1424 44.1109 28.1109C45.1424 27.0795 46.5413 26.5 48 26.5H50C51.4587 26.5 52.8576 27.0795 53.8891 28.1109C54.9205 29.1424 55.5 30.5413 55.5 32V37.106C55.5 39.076 56.78 40.816 58.66 41.402L60.234 41.894C61.7603 42.3703 63.0945 43.3219 64.0419 44.6099C64.9892 45.898 65.5001 47.4551 65.5 49.054C65.5 49.9823 65.1312 50.8725 64.4749 51.5289C63.8185 52.1853 62.9283 52.554 62 52.554H36C35.0717 52.554 34.1815 52.1853 33.5251 51.5289C32.8687 50.8725 32.5 49.9823 32.5 49.054C32.4999 47.4551 33.0108 45.898 33.9581 44.6099C34.9055 43.3219 36.2397 42.3703 37.766 41.894L39.34 41.4C40.2559 41.1143 41.0565 40.5434 41.625 39.7705C42.1934 38.9977 42.5 38.0634 42.5 37.104V32Z"
    fill="#0dabca"
  ></path>
  <path opacity="0.4"
        d="M61.9999 55.5539H35.9479C35.2279 55.5479 34.8679 55.5439 34.6979 55.6919C34.5279 55.8379 34.4819 56.1619 34.3879 56.8059C34.2659 57.6619 34.0699 58.6439 33.7899 59.6999C33.1539 62.1099 32.1279 64.7379 30.7339 66.9319C30.598 67.1462 30.5186 67.3914 30.5033 67.6446C30.4879 67.8978 30.537 68.1508 30.6459 68.3799C30.8679 68.8479 31.7599 69.1359 32.7719 69.3139C33.3599 69.3599 34.1979 69.4139 35.2119 69.4479C37.2319 69.5119 39.9759 69.4899 42.8259 69.1359C45.6599 68.7839 48.6939 68.0919 51.2399 66.7579C51.8399 66.4439 52.4159 66.0919 52.9599 65.6979C53.3359 65.4239 53.8939 65.6739 53.9559 66.1339C54.0519 66.8439 54.2779 67.5939 54.8959 68.2139C55.5079 68.8219 56.4299 69.1039 57.1419 69.2539C57.9399 69.4219 58.8499 69.4999 59.7339 69.4999C60.6159 69.4999 61.5299 69.4199 62.3339 69.2399C63.0539 69.0799 63.9879 68.7819 64.5999 68.1299C65.2079 67.4839 65.4159 66.7299 65.4759 65.9939C65.5299 65.3479 65.4799 64.5699 65.4259 63.7419L65.4179 63.6479C65.2779 61.5139 64.9659 58.8619 64.2279 56.3639C64.0879 55.8859 64.0159 55.6459 63.8339 55.5259C63.6519 55.4059 63.3539 55.4399 62.7579 55.5099C62.5063 55.5386 62.2532 55.5526 61.9999 55.5519V55.5539Z"
        fill="#0dabca"
  ></path>
  <defs>
    <linearGradient id="paint0_linear_323_2102" x1="36.3893" y1="26.5" x2="63.4409" y2="28.2766"
                    gradientUnits="userSpaceOnUse"
    >
      <stop stop-color="#FB815A"></stop>
      <stop offset="1" stop-color="#FA4E18"></stop>
    </linearGradient>
    <linearGradient id="paint1_linear_323_2102" x1="34.6253" y1="55.4465" x2="62.9665" y2="59.1063"
                    gradientUnits="userSpaceOnUse"
    >
      <stop stop-color="#FB815A"></stop>
      <stop offset="1" stop-color="#FA4E18"></stop>
    </linearGradient>
  </defs>
</svg>
