<svg width="28" height="28" viewBox="0 0 28 28" fill="none" xmlns="http://www.w3.org/2000/svg">
  <path opacity="0.4"
        d="M12.704 1.45833C6.49383 1.45833 1.4585 6.49133 1.4585 12.7015C1.4585 14.7887 2.02783 16.7452 3.02183 18.4217C3.40333 19.0668 3.65183 19.5183 3.81283 19.9687C3.96683 20.4003 4.05083 20.8635 4.05083 21.5203V21.5658C4.05083 22.3732 4.05083 23.0475 4.10916 23.5912C4.1675 24.1628 4.29816 24.6902 4.62716 25.1615C4.84416 25.473 5.11366 25.7425 5.42516 25.9595C5.8965 26.2885 6.425 26.418 6.9955 26.4787C7.53916 26.5358 8.2135 26.5358 9.02083 26.5358H12.4252C12.7553 26.5358 12.9198 26.5358 13.0225 26.4332C13.1252 26.3305 13.1252 26.1648 13.1252 25.8358V22.9892C13.1252 22.7571 13.2174 22.5345 13.3814 22.3704C13.5455 22.2063 13.7681 22.1142 14.0002 22.1142C14.4832 22.1142 14.713 22.2577 14.8752 22.9892L15.3045 24.2923C15.5052 24.9037 15.6055 25.2093 15.763 25.4555C16.0818 25.9563 16.5795 26.3168 17.1548 26.4635C17.4383 26.5358 17.7603 26.5358 18.4032 26.5358C19.0343 26.5358 19.5617 26.5358 19.9957 26.5008C20.4507 26.4623 20.8707 26.3818 21.2743 26.1847C21.7095 25.9723 22.0968 25.6713 22.4083 25.2992C22.847 24.7777 23.1142 24.1418 23.2973 23.5398C23.4793 22.9425 23.5983 22.309 23.7022 21.7595C23.7605 21.5238 23.988 20.9988 24.4255 20.7795L26.0588 19.9628C26.1622 19.9109 26.2543 19.839 26.3297 19.7513C26.4051 19.6635 26.4624 19.5617 26.4982 19.4517C26.534 19.3417 26.5476 19.2256 26.5383 19.1103C26.529 18.995 26.4969 18.8827 26.4438 18.7798L24.3672 14.7513C24.1397 14.3103 24.0102 14.0572 23.9682 13.776C23.9518 13.6698 23.9495 13.4237 23.9495 12.7015C23.9495 6.49133 18.9142 1.45833 12.7028 1.45833H12.704Z"
        fill="#03AF91"
  ></path>
  <path fill-rule="evenodd" clip-rule="evenodd"
        d="M13.8603 6.74333C14.6746 6.89966 15.3023 7.51099 15.2626 8.45249C15.2567 8.59567 15.2861 8.73811 15.3481 8.86728C15.4102 8.99646 15.503 9.10842 15.6184 9.19333C15.7338 9.27823 15.8684 9.33349 16.0102 9.35424C16.1519 9.37499 16.2967 9.3606 16.4316 9.31233C16.5455 9.27189 16.6654 9.25137 16.7863 9.25166C17.1631 9.25166 17.3883 9.38933 17.5318 9.55616C17.6904 9.74283 17.7919 10.0205 17.7919 10.332C17.7919 10.6435 17.6904 10.9212 17.5318 11.1067C17.3883 11.2747 17.1631 11.4112 16.7863 11.4112C16.5242 11.412 16.2713 11.3151 16.0769 11.1393C15.9921 11.0596 15.8922 10.9976 15.783 10.9569C15.6739 10.9163 15.5578 10.8978 15.4414 10.9026C15.3251 10.9075 15.2108 10.9355 15.1055 10.985C15.0001 11.0345 14.9056 11.1046 14.8277 11.1911C14.7497 11.2776 14.6898 11.3788 14.6514 11.4887C14.6131 11.5987 14.5971 11.7152 14.6043 11.8314C14.6116 11.9476 14.642 12.0612 14.6937 12.1656C14.7454 12.2699 14.8175 12.3629 14.9056 12.439C15.1669 12.6747 15.4738 12.8613 15.8098 12.9873C15.7496 13.191 15.6527 13.3819 15.5239 13.5508C15.3046 13.8308 14.9873 14.0175 14.5206 14.0175C13.4974 14.0175 12.6808 14.4667 12.1406 15.155C11.6179 15.8212 11.3799 16.674 11.3799 17.5C11.3799 17.7321 11.4721 17.9546 11.6362 18.1187C11.8003 18.2828 12.0229 18.375 12.2549 18.375C12.487 18.375 12.7096 18.2828 12.8736 18.1187C13.0377 17.9546 13.1299 17.7321 13.1299 17.5C13.1299 16.989 13.2804 16.5375 13.5173 16.2353C13.7378 15.9553 14.0539 15.7687 14.5206 15.7687C15.5449 15.7687 16.3616 15.3195 16.9006 14.6312C17.2623 14.1703 17.4874 13.622 17.5913 13.0538C18.1058 12.9092 18.5363 12.6257 18.8618 12.2442C19.308 11.7071 19.549 11.029 19.5419 10.3308C19.5419 9.66582 19.3296 8.96583 18.8618 8.41866C18.4009 7.88083 17.7301 7.53666 16.9111 7.50399C16.5669 6.12383 15.4049 5.25816 14.1881 5.02483C12.9596 4.79033 11.5398 5.17649 10.7161 6.36066C9.47243 5.97099 8.1961 6.40733 7.35026 7.19716C6.5056 7.98583 5.9876 9.21549 6.29093 10.4872C5.31093 11.0565 4.8956 12.159 4.96676 13.1413C5.05776 14.4153 5.98993 15.7687 7.72476 15.7687C8.68026 15.7687 9.5226 15.2903 10.0301 14.5647C10.1631 14.3744 10.2152 14.139 10.1747 13.9104C10.1342 13.6817 10.0046 13.4785 9.81426 13.3455C9.62397 13.2124 9.38862 13.1604 9.15998 13.2009C8.93134 13.2414 8.72815 13.371 8.5951 13.5613C8.49753 13.7022 8.36731 13.8174 8.21554 13.8971C8.06378 13.9767 7.89499 14.0184 7.72359 14.0187C7.11693 14.0187 6.75409 13.5987 6.71209 13.0153C6.67009 12.4285 6.97226 11.9595 7.56493 11.8697C7.70642 11.8485 7.84057 11.7929 7.95561 11.7079C8.07064 11.6228 8.16307 11.5108 8.22479 11.3818C8.2865 11.2527 8.31563 11.1104 8.30961 10.9675C8.30359 10.8245 8.26261 10.6853 8.19026 10.5618C7.75276 9.81633 7.96276 9.01832 8.54376 8.47699C9.13176 7.92866 9.94493 7.78516 10.6169 8.23899C11.0778 8.54932 11.3799 9.07899 11.3799 9.67983C11.3799 9.91189 11.4721 10.1344 11.6362 10.2985C11.8003 10.4626 12.0229 10.5548 12.2549 10.5548C12.487 10.5548 12.7096 10.4626 12.8736 10.2985C13.0377 10.1344 13.1299 9.91189 13.1299 9.67983C13.1299 8.76283 12.7764 7.92633 12.1989 7.30449C12.5898 6.80283 13.2209 6.62083 13.8603 6.74333Z"
        fill="#03AF91"
  ></path>
</svg>
