<svg width="28" height="28" viewBox="0 0 28 28" fill="none" xmlns="http://www.w3.org/2000/svg">
  <path opacity="0.4" fill-rule="evenodd" clip-rule="evenodd"
        d="M4.45197 15.344C7.7338 15.2775 10.9421 16.3007 13.5053 18.242C15.8713 20.0352 17.5478 22.5074 18.277 25.2817C18.3102 25.4083 18.3147 25.5409 18.2899 25.6695C18.2651 25.7981 18.2118 25.9195 18.1339 26.0247C18.056 26.13 17.9554 26.2164 17.8396 26.2776C17.7239 26.3388 17.5958 26.3732 17.465 26.3784C16.3006 26.425 14.945 26.425 13.3746 26.425H13.293C10.738 26.425 8.73013 26.425 7.16213 26.2139C5.5568 25.998 4.28163 25.5465 3.28063 24.5455C2.4103 23.6752 1.95063 22.6077 1.70447 21.2824C1.46297 19.985 1.4128 18.3774 1.40113 16.3789C1.40006 16.1679 1.47527 15.9636 1.6129 15.8036C1.75054 15.6437 1.94133 15.5389 2.15013 15.5085C2.91241 15.3981 3.68174 15.3424 4.45197 15.344ZM16.94 19.0844C16.6716 18.7717 16.7766 18.2805 17.1686 18.1557C18.157 17.8352 19.1898 17.6729 20.2288 17.675C21.7641 17.6727 23.2796 18.0437 24.7298 18.76C24.8861 18.8372 25.0158 18.9592 25.1022 19.1105C25.1887 19.2619 25.228 19.4355 25.2151 19.6094C25.0576 21.7257 24.6493 23.3357 23.4395 24.5444C22.526 25.4579 21.3861 25.914 19.9756 26.1509C20.0855 25.7197 20.0839 25.2676 19.971 24.8372C19.4086 22.7151 18.3722 20.7482 16.94 19.0844Z"
        fill="#FF4720"
  ></path>
  <path fill-rule="evenodd" clip-rule="evenodd"
        d="M13.3292 2.33334H13.4167C13.7262 2.33334 14.0229 2.45626 14.2417 2.67505C14.4605 2.89384 14.5834 3.19059 14.5834 3.50001C14.5834 3.80943 14.4605 4.10618 14.2417 4.32497C14.0229 4.54376 13.7262 4.66668 13.4167 4.66668C10.7719 4.66668 8.90525 4.66901 7.49125 4.85918C6.11225 5.04468 5.33991 5.39001 4.78108 5.94768C4.22341 6.50768 3.87808 7.27768 3.69258 8.65784C3.50241 10.0718 3.50008 11.9385 3.50008 14.5833C3.50008 17.2282 3.50241 19.0948 3.69258 20.5088C3.87808 21.8878 4.22225 22.6602 4.78108 23.219C5.34108 23.7778 6.11108 24.122 7.49125 24.3075C8.90525 24.4977 10.7719 24.5 13.4167 24.5C16.0616 24.5 17.9282 24.4977 19.3422 24.3075C20.7212 24.122 21.4936 23.7778 22.0524 23.219C22.6112 22.659 22.9554 21.889 23.1409 20.5088C23.3311 19.0948 23.3334 13.7282 23.3334 11.0833V10.5C23.3334 10.1906 23.4563 9.89384 23.6751 9.67505C23.8939 9.45626 24.1907 9.33334 24.5001 9.33334C24.8095 9.33334 25.1062 9.45626 25.325 9.67505C25.5438 9.89384 25.6667 10.1906 25.6667 10.5V11.1697C25.6667 13.7083 25.6667 19.2325 25.4532 20.8192C25.2327 22.4583 24.7661 23.8047 23.7021 24.8675C22.6381 25.9327 21.2917 26.3993 19.6537 26.6198C18.0671 26.8333 16.0417 26.8333 13.5031 26.8333H13.3304C10.7917 26.8333 8.76758 26.8333 7.18091 26.6198C5.54175 26.3993 4.19658 25.9327 3.13258 24.8687C2.06741 23.8047 1.60075 22.4583 1.38025 20.8203C1.16675 19.2325 1.16675 17.2083 1.16675 14.6697V14.4947C1.16675 11.9572 1.16675 9.93301 1.38025 8.34634C1.60075 6.70718 2.06741 5.36201 3.13141 4.29801C4.19658 3.23284 5.54175 2.76618 7.17975 2.54568C8.76758 2.33334 10.7906 2.33334 13.3292 2.33334Z"
        fill="#FF4720"
  ></path>
  <path
    d="M26.7669 1.94368C26.8181 2.08822 26.8403 2.24144 26.8322 2.39458C26.8242 2.54772 26.786 2.69776 26.7199 2.83613C26.6538 2.9745 26.5611 3.09849 26.447 3.20099C26.333 3.30349 26.1998 3.38251 26.0552 3.43351C25.4334 3.65401 24.7135 4.12884 23.9529 4.79618C23.2027 5.45418 22.4735 6.24401 21.8272 7.01868C21.0617 7.94049 20.3474 8.90366 19.6875 9.90384L19.6595 9.94701L19.6525 9.95751V9.95984C19.5418 10.1346 19.3866 10.2767 19.2029 10.3717C19.0191 10.4667 18.8134 10.5111 18.6069 10.5004C18.4003 10.4897 18.2003 10.4243 18.0273 10.3109C17.8544 10.1974 17.7147 10.04 17.6225 9.85484C17.1092 8.82818 16.6484 8.41751 16.415 8.26234C16.3558 8.22091 16.2915 8.1872 16.2237 8.16201C15.924 8.13516 15.6463 7.99358 15.4485 7.76682C15.2508 7.54006 15.1483 7.24566 15.1624 6.94512C15.1766 6.64457 15.3063 6.36111 15.5245 6.15394C15.7427 5.94677 16.0325 5.83191 16.3334 5.83334L16.422 5.83684C16.5682 5.84852 16.7128 5.87471 16.8537 5.91501C17.0975 5.98501 17.3904 6.10751 17.71 6.32101C18.0297 6.53451 18.3657 6.82968 18.7017 7.23334C19.0704 6.73051 19.523 6.13784 20.0352 5.52418C20.7282 4.69351 21.5425 3.80684 22.414 3.04268C23.2739 2.28901 24.2527 1.59601 25.277 1.23434C25.4214 1.18308 25.5745 1.16076 25.7275 1.16867C25.8806 1.17657 26.0305 1.21454 26.1689 1.28041C26.3072 1.34628 26.4312 1.43876 26.5339 1.55256C26.6365 1.66637 26.7156 1.79927 26.7669 1.94368Z"
    fill="#FF4720"
  ></path>
</svg>
