<svg width="28" height="28" viewBox="0 0 28 28" fill="none" xmlns="http://www.w3.org/2000/svg">
  <path
    d="M22.7697 13.1856C23.5327 12.4075 24.1662 11.7611 24.6014 11.179C25.0587 10.5665 25.3737 9.92715 25.3737 9.15831C25.3737 8.38948 25.0587 7.75015 24.6014 7.13765C24.1674 6.55548 23.535 5.90915 22.772 5.13098L21.82 4.15681C21.0477 3.36815 20.4084 2.71248 19.8309 2.26331C19.2242 1.78965 18.5826 1.45831 17.8056 1.45831C17.0286 1.45831 16.3881 1.78965 15.7802 2.26215C15.2039 2.71131 14.5622 3.36581 13.7899 4.15448L10.8779 7.12831C10.6516 7.35931 10.5396 7.47481 10.5396 7.61831C10.5396 7.76065 10.6516 7.87498 10.8779 8.10831L18.8054 16.2108C19.041 16.4511 19.1589 16.5713 19.3059 16.5713C19.4529 16.5713 19.5707 16.4511 19.8064 16.2096L22.7697 13.1845V13.1856Z"
    fill="url(#paint0_linear_323_2139)"
  ></path>
  <path opacity="0.4"
        d="M17.1954 17.9013C17.4206 18.1323 17.5337 18.2478 17.5337 18.3913C17.5337 18.5336 17.4206 18.648 17.1954 18.8801L15.1024 21.0198C14.4537 21.6825 14.0092 22.1375 13.4667 22.449C13.1517 22.6286 12.8169 22.771 12.4681 22.8701C11.8661 23.0416 11.1147 23.0416 10.1931 23.0416C9.27374 23.0416 8.52241 23.0416 7.92041 22.8701C7.57169 22.7707 7.23634 22.6293 6.92174 22.449C6.37924 22.1375 5.93474 21.6825 5.28607 21.0186C4.63507 20.3536 3.79974 19.5008 3.41591 19.005C3.01341 18.4858 2.71591 17.9468 2.64591 17.297C2.61933 17.0539 2.61933 16.8086 2.64591 16.5655C2.71591 15.9145 3.01341 15.3755 3.41591 14.8563C3.80091 14.3616 4.34107 13.8075 4.99324 13.1413L8.26691 9.79764C8.50257 9.55731 8.61924 9.43597 8.76741 9.43597C8.91441 9.43597 9.03224 9.55731 9.26674 9.79764L17.1954 17.9013Z"
        fill="url(#paint0_linear_323_2139)"
  ></path>
  <path fill-rule="evenodd" clip-rule="evenodd"
        d="M10.2083 25.375C10.2083 25.0656 10.3312 24.7688 10.55 24.55C10.7688 24.3312 11.0655 24.2083 11.3749 24.2083H24.2083C24.5177 24.2083 24.8144 24.3312 25.0332 24.55C25.252 24.7688 25.3749 25.0656 25.3749 25.375C25.3749 25.6844 25.252 25.9811 25.0332 26.1999C24.8144 26.4187 24.5177 26.5416 24.2083 26.5416H11.3749C11.0655 26.5416 10.7688 26.4187 10.55 26.1999C10.3312 25.9811 10.2083 25.6844 10.2083 25.375Z"
        fill="url(#paint0_linear_323_2139)"
  ></path>
  <defs>
    <linearGradient id="paint0_linear_323_2139" x1="10.5396" y1="9.01482" x2="25.3737" y2="9.01482"
                    gradientUnits="userSpaceOnUse"
    >
      <stop stop-color="#4A3AFF"></stop>
      <stop offset="1" stop-color="#6D3AFF"></stop>
    </linearGradient>
    <linearGradient id="paint1_linear_323_2139" x1="2.62598" y1="16.2388" x2="17.5337" y2="16.2388"
                    gradientUnits="userSpaceOnUse"
    >
      <stop stop-color="#4A3AFF"></stop>
      <stop offset="1" stop-color="#6D3AFF"></stop>
    </linearGradient>
    <linearGradient id="paint2_linear_323_2139" x1="10.2083" y1="25.375" x2="25.3749" y2="25.375"
                    gradientUnits="userSpaceOnUse"
    >
      <stop stop-color="#4A3AFF"></stop>
      <stop offset="1" stop-color="#6D3AFF"></stop>
    </linearGradient>
  </defs>
</svg>
