<svg width="28" height="28" viewBox="0 0 28 28" fill="none" xmlns="http://www.w3.org/2000/svg">
  <path opacity="0.4"
        d="M14.1867 24.7088C13.8741 25.6468 12.9781 26.733 11.5921 26.5148C10.7124 26.3772 9.61458 25.9887 8.36041 25.2047C7.42241 24.6178 6.39225 23.807 5.29208 22.708C4.19191 21.6078 3.38225 20.5765 2.79542 19.6385C2.01142 18.3843 1.62292 17.2877 1.48408 16.4068C1.26708 15.022 2.35208 14.1248 3.29125 13.8122L6.80525 12.6408C7.03858 12.5638 7.15408 12.5242 7.24041 12.5673C7.32558 12.6093 7.37108 12.7388 7.46208 12.999C7.63708 13.4972 7.91242 13.8973 8.12825 14.1773C8.53191 14.7023 9.11525 15.2857 9.71491 15.8853L12.1136 18.284C12.7132 18.8837 13.2966 19.467 13.8216 19.8707C14.1016 20.0877 14.5029 20.3618 14.9999 20.5357C15.2601 20.629 15.3907 20.6733 15.4316 20.7597C15.4747 20.8448 15.4362 20.9615 15.3581 21.1937L14.1867 24.7088Z"
        fill="#1AACFF"
  ></path>
  <path
    d="M16.4675 7.31733C16.6891 7.28233 16.9131 7.28233 17.1348 7.31733C17.5478 7.38383 17.8733 7.58566 18.1486 7.80616C18.403 8.01033 18.6818 8.28916 18.9886 8.59716L19.404 9.01133C19.7108 9.31933 19.9896 9.59816 20.1938 9.85133C20.4155 10.1267 20.6173 10.4522 20.6826 10.8663C20.7176 11.088 20.7176 11.312 20.6826 11.5325C20.6173 11.9467 20.4155 12.2722 20.1938 12.5475C19.9896 12.8018 19.7108 13.0795 19.404 13.3875L19.3736 13.4178C18.872 13.9183 18.7366 14.063 18.6433 14.2228C18.6081 14.2837 18.5769 14.3469 18.55 14.4118C18.4765 14.5833 18.4415 14.784 18.34 15.4957L18.3306 15.5563C18.2023 16.464 18.0926 17.2293 17.934 17.7998C17.7776 18.3692 17.507 19.0062 16.8595 19.3282C16.6827 19.4156 16.4946 19.478 16.3006 19.5137C15.5936 19.6443 14.9986 19.3037 14.5331 18.9467C14.07 18.5897 13.531 18.0507 12.8951 17.4137L10.5863 15.106C9.9493 14.469 9.41146 13.93 9.05446 13.4668C8.6963 13.0013 8.35563 12.4075 8.48746 11.6993C8.52246 11.5057 8.58546 11.3178 8.67413 11.1417C8.99496 10.493 9.6308 10.2223 10.2001 10.066C10.7718 9.90849 11.536 9.79766 12.4436 9.66933L12.5043 9.65999C13.216 9.55849 13.4166 9.52349 13.5881 9.44999C13.6523 9.42433 13.7165 9.39166 13.776 9.35666C13.937 9.26333 14.0828 9.12683 14.5833 8.62633L14.6125 8.59716C14.9205 8.28916 15.1993 8.01033 15.4525 7.80616C15.729 7.58449 16.0533 7.38383 16.4675 7.31733Z"
    fill="#1AACFF"
  ></path>
  <path
    d="M22.5249 2.14665C22.7435 1.92817 23.0029 1.75488 23.2884 1.63667C23.574 1.51846 23.88 1.45765 24.189 1.4577C24.498 1.45776 24.804 1.51868 25.0895 1.63699C25.375 1.7553 25.6344 1.92868 25.8528 2.14723C26.0713 2.36578 26.2446 2.62523 26.3628 2.91075C26.481 3.19627 26.5418 3.50228 26.5418 3.81131C26.5417 4.12033 26.4808 4.42632 26.3625 4.7118C26.2442 4.99729 26.0708 5.25667 25.8522 5.47514L21.7689 9.55964C21.6662 9.66231 21.6149 9.71248 21.5589 9.70664C21.5041 9.70081 21.4632 9.63664 21.3816 9.50831C21.296 9.37403 21.2029 9.24471 21.1027 9.12098C20.8362 8.80447 20.5535 8.5019 20.2557 8.21448L19.7856 7.74431C19.4997 7.45848 19.1836 7.14115 18.8791 6.89731C18.7554 6.7967 18.6261 6.70321 18.4917 6.61731C18.3634 6.53681 18.2992 6.49714 18.2934 6.44114C18.2876 6.38514 18.3389 6.33381 18.4404 6.23114L22.5249 2.14665Z"
    fill="#1AACFF"
  ></path>
</svg>
